<svg viewBox="0 0 200 200" xmlns="http://www.w3.org/2000/svg">
  <defs>
    <linearGradient id="heartGradient" x1="0%" y1="0%" x2="100%" y2="100%">
      <stop offset="0%" style="stop-color:#FF416C;stop-opacity:1" />
      <stop offset="100%" style="stop-color:#8B5CF6;stop-opacity:1" />
    </linearGradient>
  </defs>
  
  <!-- Heart shape -->
  <path d="M100 170 C100 170, 30 120, 30 80 C30 50, 50 30, 75 30 C90 30, 100 40, 100 50 C100 40, 110 30, 125 30 C150 30, 170 50, 170 80 C170 120, 100 170, 100 170Z" 
        fill="url(#heartGradient)" 
        stroke="none"/>
  
  <!-- AI Brain inside heart -->
  <g transform="translate(100, 85)">
    <!-- Brain outline -->
    <path d="M-20 -10 Q-20 -20, -10 -20 Q0 -25, 10 -20 Q20 -20, 20 -10 Q20 0, 15 5 Q10 10, 0 10 Q-10 10, -15 5 Q-20 0, -20 -10Z" 
          fill="white" 
          opacity="0.9"/>
    
    <!-- Neural connections -->
    <circle cx="-10" cy="-5" r="3" fill="#FF416C"/>
    <circle cx="10" cy="-5" r="3" fill="#FF416C"/>
    <circle cx="0" cy="-10" r="3" fill="#8B5CF6"/>
    <circle cx="-5" cy="3" r="3" fill="#8B5CF6"/>
    <circle cx="5" cy="3" r="3" fill="#8B5CF6"/>
    
    <!-- Connection lines -->
    <line x1="-10" y1="-5" x2="0" y2="-10" stroke="#FF416C" stroke-width="1" opacity="0.5"/>
    <line x1="10" y1="-5" x2="0" y2="-10" stroke="#FF416C" stroke-width="1" opacity="0.5"/>
    <line x1="-5" y1="3" x2="-10" y2="-5" stroke="#8B5CF6" stroke-width="1" opacity="0.5"/>
    <line x1="5" y1="3" x2="10" y2="-5" stroke="#8B5CF6" stroke-width="1" opacity="0.5"/>
    <line x1="-5" y1="3" x2="5" y2="3" stroke="#8B5CF6" stroke-width="1" opacity="0.5"/>
  </g>
</svg>
